<svg xmlns="http://www.w3.org/2000/svg" width="256" height="256" viewBox="0 0 256 256">
<path fill="#000000" fill-rule="evenodd" fill-opacity="0.931" d="M2.00 0.00 L20.00 0.00 L22.00 2.00 L27.00 33.00 L39.00 63.00 L51.00 80.00 L70.00 97.00 L87.00 106.00 L106.00 112.00 L151.00 117.00 L197.00 127.00 L223.00 138.00 L243.00 154.00 L254.00 174.00 L256.00 183.00 L256.00 201.00 L249.00 228.00 L237.00 253.00 L234.00 256.00 L218.00 256.00 L213.00 248.00 L214.00 241.00 L226.00 218.00 L231.00 200.00 L230.00 181.00 L222.00 168.00 L211.00 160.00 L187.00 150.00 L149.00 142.00 L109.00 138.00 L85.00 132.00 L63.00 122.00 L51.00 114.00 L27.00 90.00 L12.00 65.00 L0.00 27.00 L0.00 2.00 L2.00 0.00 Z"/>
</svg>