<svg xmlns="http://www.w3.org/2000/svg" width="256" height="256" viewBox="0 0 256 256">
<path fill="#000000" fill-rule="evenodd" fill-opacity="0.953" d="M13.00 27.00 L24.00 27.00 L57.00 38.00 L62.00 44.00 L62.00 54.00 L60.00 58.00 L55.00 62.00 L44.00 62.00 L11.00 51.00 L6.00 45.00 L6.00 35.00 L13.00 27.00 Z M113.00 32.00 L128.00 33.00 L136.00 40.00 L138.00 45.00 L138.00 58.00 L136.00 62.00 L130.00 68.00 L96.00 83.00 L81.00 84.00 L76.00 82.00 L70.00 76.00 L68.00 71.00 L68.00 58.00 L70.00 54.00 L76.00 48.00 L113.00 32.00 Z M49.00 66.00 L60.00 66.00 L65.00 70.00 L67.00 74.00 L67.00 84.00 L65.00 88.00 L24.00 109.00 L11.00 108.00 L6.00 101.00 L6.00 91.00 L8.00 87.00 L49.00 66.00 Z M145.00 72.00 L169.00 73.00 L180.00 78.00 L191.00 87.00 L200.00 102.00 L231.00 180.00 L231.00 200.00 L228.00 210.00 L222.00 220.00 L213.00 229.00 L200.00 236.00 L155.00 253.00 L135.00 253.00 L128.00 251.00 L113.00 242.00 L104.00 231.00 L70.00 148.00 L69.00 125.00 L72.00 117.00 L41.00 143.00 L30.00 143.00 L23.00 136.00 L24.00 123.00 L53.00 98.00 L66.00 97.00 L69.00 99.00 L73.00 104.00 L74.00 113.00 L78.00 105.00 L90.00 94.00 L145.00 72.00 Z M150.00 97.00 L103.00 116.00 L96.00 124.00 L94.00 130.00 L95.00 143.00 L100.00 152.00 L124.00 214.00 L129.00 222.00 L140.00 228.00 L151.00 228.00 L191.00 212.00 L202.00 204.00 L206.00 195.00 L205.00 182.00 L174.00 107.00 L163.00 98.00 L150.00 97.00 Z"/>
</svg>