<svg xmlns="http://www.w3.org/2000/svg" width="256" height="256" viewBox="0 0 256 256">
<path fill="#000000" fill-rule="evenodd" fill-opacity="0.854" d="M238.00 0.00 L249.00 0.00 L251.00 3.00 L252.00 14.00 L256.00 104.00 L256.00 200.00 L152.00 248.00 L142.00 251.00 L135.00 256.00 L96.00 256.00 L88.00 254.00 L71.00 254.00 L66.00 250.00 L65.00 241.00 L70.00 236.00 L96.00 236.00 L110.00 239.00 L101.00 225.00 L95.00 228.00 L56.00 237.00 L20.00 237.00 L10.00 234.00 L0.00 228.00 L0.00 220.00 L6.00 214.00 L13.00 214.00 L26.00 220.00 L42.00 220.00 L90.00 209.00 L77.00 187.00 L70.00 179.00 L66.00 170.00 L55.00 156.00 L51.00 147.00 L40.00 133.00 L36.00 124.00 L33.00 122.00 L32.00 118.00 L29.00 116.00 L28.00 112.00 L25.00 110.00 L24.00 106.00 L0.00 72.00 L0.00 58.00 L12.00 56.00 L31.00 62.00 L37.00 62.00 L86.00 75.00 L92.00 75.00 L111.00 81.00 L137.00 86.00 L141.00 81.00 L154.00 72.00 L160.00 65.00 L167.00 61.00 L238.00 0.00 Z M233.00 31.00 L224.00 37.00 L206.00 54.00 L204.00 54.00 L186.00 71.00 L184.00 71.00 L166.00 88.00 L164.00 88.00 L152.00 100.00 L144.00 105.00 L134.00 105.00 L115.00 99.00 L105.00 98.00 L86.00 92.00 L75.00 91.00 L64.00 87.00 L27.00 79.00 L111.00 205.00 L134.00 207.00 L155.00 216.00 L161.00 222.00 L165.00 222.00 L238.00 188.00 L233.00 31.00 Z M125.00 224.00 L124.00 225.00 L128.00 229.00 L131.00 236.00 L143.00 232.00 L141.00 229.00 L125.00 224.00 Z"/>
</svg>