<svg xmlns="http://www.w3.org/2000/svg" width="256" height="256" viewBox="0 0 256 256">
<path fill="#000000" fill-rule="evenodd" fill-opacity="0.914" d="M109.00 37.00 L144.00 37.00 L148.00 41.00 L148.00 49.00 L143.00 53.00 L126.00 52.00 L103.00 55.00 L94.00 55.00 L91.00 53.00 L90.00 43.00 L93.00 40.00 L109.00 37.00 Z M192.00 51.00 L199.00 51.00 L225.00 67.00 L237.00 79.00 L237.00 88.00 L233.00 91.00 L226.00 91.00 L207.00 74.00 L191.00 66.00 L188.00 63.00 L188.00 55.00 L192.00 51.00 Z M42.00 60.00 L48.00 60.00 L52.00 63.00 L52.00 73.00 L31.00 90.00 L21.00 105.00 L12.00 105.00 L8.00 99.00 L12.00 88.00 L29.00 69.00 L42.00 60.00 Z M246.00 124.00 L251.00 124.00 L256.00 128.00 L256.00 141.00 L254.00 149.00 L247.00 165.00 L240.00 175.00 L237.00 177.00 L230.00 177.00 L226.00 173.00 L226.00 165.00 L236.00 151.00 L240.00 139.00 L241.00 128.00 L246.00 124.00 Z M9.00 141.00 L14.00 141.00 L19.00 145.00 L20.00 150.00 L27.00 162.00 L39.00 175.00 L42.00 176.00 L43.00 186.00 L40.00 189.00 L33.00 190.00 L29.00 188.00 L10.00 166.00 L4.00 153.00 L4.00 145.00 L9.00 141.00 Z M186.00 193.00 L191.00 193.00 L196.00 197.00 L196.00 205.00 L192.00 209.00 L155.00 219.00 L143.00 219.00 L139.00 215.00 L139.00 208.00 L143.00 204.00 L168.00 200.00 L186.00 193.00 Z M83.00 199.00 L110.00 204.00 L132.00 205.00 L136.00 209.00 L136.00 216.00 L132.00 220.00 L109.00 220.00 L82.00 215.00 L78.00 211.00 L78.00 203.00 L83.00 199.00 Z"/>
</svg>