<svg xmlns="http://www.w3.org/2000/svg" width="256" height="256" viewBox="0 0 256 256">
<path fill="#000000" fill-rule="evenodd" fill-opacity="0.991" d="M0.00 35.00 L87.00 35.00 L91.00 39.00 L91.00 46.00 L87.00 50.00 L15.00 50.00 L15.00 91.00 L10.00 95.00 L5.00 95.00 L0.00 91.00 L0.00 35.00 Z M139.00 35.00 L256.00 35.00 L256.00 61.00 L251.00 65.00 L244.00 64.00 L241.00 61.00 L241.00 50.00 L139.00 50.00 L135.00 46.00 L135.00 39.00 L139.00 35.00 Z M246.00 109.00 L251.00 109.00 L256.00 113.00 L256.00 221.00 L115.00 220.00 L113.00 217.00 L113.00 210.00 L117.00 206.00 L241.00 206.00 L241.00 113.00 L246.00 109.00 Z M5.00 139.00 L10.00 139.00 L15.00 143.00 L15.00 206.00 L65.00 206.00 L69.00 210.00 L69.00 217.00 L65.00 221.00 L0.00 221.00 L0.00 143.00 L5.00 139.00 Z"/>
</svg>